<?xml version="1.0" encoding="utf-8" standalone="no"?>
<!DOCTYPE svg PUBLIC "-//W3C//DTD SVG 1.1//EN"
  "http://www.w3.org/Graphics/SVG/1.1/DTD/svg11.dtd">
<svg xmlns:xlink="http://www.w3.org/1999/xlink" width="411.391406pt" height="231.118031pt" viewBox="0 0 411.391406 231.118031" xmlns="http://www.w3.org/2000/svg" version="1.1">
 <metadata>
  <rdf:RDF xmlns:dc="http://purl.org/dc/elements/1.1/" xmlns:cc="http://creativecommons.org/ns#" xmlns:rdf="http://www.w3.org/1999/02/22-rdf-syntax-ns#">
   <cc:Work>
    <dc:type rdf:resource="http://purl.org/dc/dcmitype/StillImage"/>
    <dc:date>2026-07-17T21:42:04.978217</dc:date>
    <dc:format>image/svg+xml</dc:format>
    <dc:creator>
     <cc:Agent>
      <dc:title>Matplotlib v3.11.0, https://matplotlib.org/</dc:title>
     </cc:Agent>
    </dc:creator>
   </cc:Work>
  </rdf:RDF>
 </metadata>
 <defs>
  <style type="text/css">*{stroke-linejoin: round; stroke-linecap: butt}</style>
 </defs>
 <g id="figure_1">
  <g id="patch_1">
   <path d="M 0 231.118031 
L 411.391406 231.118031 
L 411.391406 0 
L 0 0 
z
" style="fill: #ffffff"/>
  </g>
  <g id="axes_1">
   <g id="patch_2">
    <path d="M 41.513516 195.313109 
L 404.191406 195.313109 
L 404.191406 21.406312 
L 41.513516 21.406312 
z
" style="fill: #ffffff"/>
   </g>
   <g id="patch_3">
    <path d="M 57.998874 182.259321 
L 114.468059 182.259321 
L 114.468059 80.775789 
L 57.998874 80.775789 
z
" clip-path="url(#pe0689e0692)" style="fill: #2f6f9f"/>
   </g>
   <g id="patch_4">
    <path d="M 149.078204 182.259321 
L 205.547388 182.259321 
L 205.547388 150.523438 
L 149.078204 150.523438 
z
" clip-path="url(#pe0689e0692)" style="fill: #4f8f72"/>
   </g>
   <g id="patch_5">
    <path d="M 240.157534 182.259321 
L 296.626718 182.259321 
L 296.626718 184.853411 
L 240.157534 184.853411 
z
" clip-path="url(#pe0689e0692)" style="fill: #bf7c52"/>
   </g>
   <g id="patch_6">
    <path d="M 331.236863 182.259321 
L 387.706048 182.259321 
L 387.706048 179.617477 
L 331.236863 179.617477 
z
" clip-path="url(#pe0689e0692)" style="fill: #b8c7d1"/>
   </g>
   <g id="matplotlib.axis_1">
    <g id="xtick_1">
     <g id="line2d_1">
      <defs>
       <path id="m05963e6f21" d="M 0 0 
L 0 3.5 
" style="stroke: #000000; stroke-width: 0.8"/>
      </defs>
      <g>
       <use xlink:href="#m05963e6f21" x="86.233466" y="195.313109" style="stroke: #000000; stroke-width: 0.8"/>
      </g>
     </g>
     <g id="text_1">
      <!-- path zero -->
      <g transform="translate(64.93792 209.151703) scale(0.09 -0.09)">
       <defs>
        <path id="DejaVuSans-53" d="M 1159 525 
L 1159 -1331 
L 581 -1331 
L 581 3500 
L 1159 3500 
L 1159 2969 
Q 1341 3281 1617 3432 
Q 1894 3584 2278 3584 
Q 2916 3584 3314 3078 
Q 3713 2572 3713 1747 
Q 3713 922 3314 415 
Q 2916 -91 2278 -91 
Q 1894 -91 1617 61 
Q 1341 213 1159 525 
z
M 3116 1747 
Q 3116 2381 2855 2742 
Q 2594 3103 2138 3103 
Q 1681 3103 1420 2742 
Q 1159 2381 1159 1747 
Q 1159 1113 1420 752 
Q 1681 391 2138 391 
Q 2594 391 2855 752 
Q 3116 1113 3116 1747 
z
" transform="scale(0.015625)"/>
        <path id="DejaVuSans-44" d="M 2194 1759 
Q 1497 1759 1228 1600 
Q 959 1441 959 1056 
Q 959 750 1161 570 
Q 1363 391 1709 391 
Q 2188 391 2477 730 
Q 2766 1069 2766 1631 
L 2766 1759 
L 2194 1759 
z
M 3341 1997 
L 3341 0 
L 2766 0 
L 2766 531 
Q 2569 213 2275 61 
Q 1981 -91 1556 -91 
Q 1019 -91 701 211 
Q 384 513 384 1019 
Q 384 1609 779 1909 
Q 1175 2209 1959 2209 
L 2766 2209 
L 2766 2266 
Q 2766 2663 2505 2880 
Q 2244 3097 1772 3097 
Q 1472 3097 1187 3025 
Q 903 2953 641 2809 
L 641 3341 
Q 956 3463 1253 3523 
Q 1550 3584 1831 3584 
Q 2591 3584 2966 3190 
Q 3341 2797 3341 1997 
z
" transform="scale(0.015625)"/>
        <path id="DejaVuSans-57" d="M 1172 4494 
L 1172 3500 
L 2356 3500 
L 2356 3053 
L 1172 3053 
L 1172 1153 
Q 1172 725 1289 603 
Q 1406 481 1766 481 
L 2356 481 
L 2356 0 
L 1766 0 
Q 1100 0 847 248 
Q 594 497 594 1153 
L 594 3053 
L 172 3053 
L 172 3500 
L 594 3500 
L 594 4494 
L 1172 4494 
z
" transform="scale(0.015625)"/>
        <path id="DejaVuSans-4b" d="M 3513 2113 
L 3513 0 
L 2938 0 
L 2938 2094 
Q 2938 2591 2744 2837 
Q 2550 3084 2163 3084 
Q 1697 3084 1428 2787 
Q 1159 2491 1159 1978 
L 1159 0 
L 581 0 
L 581 4863 
L 1159 4863 
L 1159 2956 
Q 1366 3272 1645 3428 
Q 1925 3584 2291 3584 
Q 2894 3584 3203 3211 
Q 3513 2838 3513 2113 
z
" transform="scale(0.015625)"/>
        <path id="DejaVuSans-3" transform="scale(0.015625)"/>
        <path id="DejaVuSans-5d" d="M 353 3500 
L 3084 3500 
L 3084 2975 
L 922 459 
L 3084 459 
L 3084 0 
L 275 0 
L 275 525 
L 2438 3041 
L 353 3041 
L 353 3500 
z
" transform="scale(0.015625)"/>
        <path id="DejaVuSans-48" d="M 3597 1894 
L 3597 1613 
L 953 1613 
Q 991 1019 1311 708 
Q 1631 397 2203 397 
Q 2534 397 2845 478 
Q 3156 559 3463 722 
L 3463 178 
Q 3153 47 2828 -22 
Q 2503 -91 2169 -91 
Q 1331 -91 842 396 
Q 353 884 353 1716 
Q 353 2575 817 3079 
Q 1281 3584 2069 3584 
Q 2775 3584 3186 3129 
Q 3597 2675 3597 1894 
z
M 3022 2063 
Q 3016 2534 2758 2815 
Q 2500 3097 2075 3097 
Q 1594 3097 1305 2825 
Q 1016 2553 972 2059 
L 3022 2063 
z
" transform="scale(0.015625)"/>
        <path id="DejaVuSans-55" d="M 2631 2963 
Q 2534 3019 2420 3045 
Q 2306 3072 2169 3072 
Q 1681 3072 1420 2755 
Q 1159 2438 1159 1844 
L 1159 0 
L 581 0 
L 581 3500 
L 1159 3500 
L 1159 2956 
Q 1341 3275 1631 3429 
Q 1922 3584 2338 3584 
Q 2397 3584 2469 3576 
Q 2541 3569 2628 3553 
L 2631 2963 
z
" transform="scale(0.015625)"/>
        <path id="DejaVuSans-52" d="M 1959 3097 
Q 1497 3097 1228 2736 
Q 959 2375 959 1747 
Q 959 1119 1226 758 
Q 1494 397 1959 397 
Q 2419 397 2687 759 
Q 2956 1122 2956 1747 
Q 2956 2369 2687 2733 
Q 2419 3097 1959 3097 
z
M 1959 3584 
Q 2709 3584 3137 3096 
Q 3566 2609 3566 1747 
Q 3566 888 3137 398 
Q 2709 -91 1959 -91 
Q 1206 -91 779 398 
Q 353 888 353 1747 
Q 353 2609 779 3096 
Q 1206 3584 1959 3584 
z
" transform="scale(0.015625)"/>
       </defs>
       <use xlink:href="#DejaVuSans-53"/>
       <use xlink:href="#DejaVuSans-44" transform="translate(63.484375 0)"/>
       <use xlink:href="#DejaVuSans-57" transform="translate(124.765625 0)"/>
       <use xlink:href="#DejaVuSans-4b" transform="translate(163.96875 0)"/>
       <use xlink:href="#DejaVuSans-3" transform="translate(227.34375 0)"/>
       <use xlink:href="#DejaVuSans-5d" transform="translate(259.125 0)"/>
       <use xlink:href="#DejaVuSans-48" transform="translate(311.609375 0)"/>
       <use xlink:href="#DejaVuSans-55" transform="translate(373.140625 0)"/>
       <use xlink:href="#DejaVuSans-52" transform="translate(412.046875 0)"/>
      </g>
     </g>
    </g>
    <g id="xtick_2">
     <g id="line2d_2">
      <g>
       <use xlink:href="#m05963e6f21" x="177.312796" y="195.313109" style="stroke: #000000; stroke-width: 0.8"/>
      </g>
     </g>
     <g id="text_2">
      <!-- source-position -->
      <g transform="translate(142.921546 210.052582) scale(0.09 -0.09)">
       <defs>
        <path id="DejaVuSans-56" d="M 2834 3397 
L 2834 2853 
Q 2591 2978 2328 3040 
Q 2066 3103 1784 3103 
Q 1356 3103 1142 2972 
Q 928 2841 928 2578 
Q 928 2378 1081 2264 
Q 1234 2150 1697 2047 
L 1894 2003 
Q 2506 1872 2764 1633 
Q 3022 1394 3022 966 
Q 3022 478 2636 193 
Q 2250 -91 1575 -91 
Q 1294 -91 989 -36 
Q 684 19 347 128 
L 347 722 
Q 666 556 975 473 
Q 1284 391 1588 391 
Q 1994 391 2212 530 
Q 2431 669 2431 922 
Q 2431 1156 2273 1281 
Q 2116 1406 1581 1522 
L 1381 1569 
Q 847 1681 609 1914 
Q 372 2147 372 2553 
Q 372 3047 722 3315 
Q 1072 3584 1716 3584 
Q 2034 3584 2315 3537 
Q 2597 3491 2834 3397 
z
" transform="scale(0.015625)"/>
        <path id="DejaVuSans-58" d="M 544 1381 
L 544 3500 
L 1119 3500 
L 1119 1403 
Q 1119 906 1312 657 
Q 1506 409 1894 409 
Q 2359 409 2629 706 
Q 2900 1003 2900 1516 
L 2900 3500 
L 3475 3500 
L 3475 0 
L 2900 0 
L 2900 538 
Q 2691 219 2414 64 
Q 2138 -91 1772 -91 
Q 1169 -91 856 284 
Q 544 659 544 1381 
z
M 1991 3584 
L 1991 3584 
z
" transform="scale(0.015625)"/>
        <path id="DejaVuSans-46" d="M 3122 3366 
L 3122 2828 
Q 2878 2963 2633 3030 
Q 2388 3097 2138 3097 
Q 1578 3097 1268 2742 
Q 959 2388 959 1747 
Q 959 1106 1268 751 
Q 1578 397 2138 397 
Q 2388 397 2633 464 
Q 2878 531 3122 666 
L 3122 134 
Q 2881 22 2623 -34 
Q 2366 -91 2075 -91 
Q 1284 -91 818 406 
Q 353 903 353 1747 
Q 353 2603 823 3093 
Q 1294 3584 2113 3584 
Q 2378 3584 2631 3529 
Q 2884 3475 3122 3366 
z
" transform="scale(0.015625)"/>
        <path id="DejaVuSans-10" d="M 313 2009 
L 1997 2009 
L 1997 1497 
L 313 1497 
L 313 2009 
z
" transform="scale(0.015625)"/>
        <path id="DejaVuSans-4c" d="M 603 3500 
L 1178 3500 
L 1178 0 
L 603 0 
L 603 3500 
z
M 603 4863 
L 1178 4863 
L 1178 4134 
L 603 4134 
L 603 4863 
z
" transform="scale(0.015625)"/>
        <path id="DejaVuSans-51" d="M 3513 2113 
L 3513 0 
L 2938 0 
L 2938 2094 
Q 2938 2591 2744 2837 
Q 2550 3084 2163 3084 
Q 1697 3084 1428 2787 
Q 1159 2491 1159 1978 
L 1159 0 
L 581 0 
L 581 3500 
L 1159 3500 
L 1159 2956 
Q 1366 3272 1645 3428 
Q 1925 3584 2291 3584 
Q 2894 3584 3203 3211 
Q 3513 2838 3513 2113 
z
" transform="scale(0.015625)"/>
       </defs>
       <use xlink:href="#DejaVuSans-56"/>
       <use xlink:href="#DejaVuSans-52" transform="translate(52.09375 0)"/>
       <use xlink:href="#DejaVuSans-58" transform="translate(113.28125 0)"/>
       <use xlink:href="#DejaVuSans-55" transform="translate(176.65625 0)"/>
       <use xlink:href="#DejaVuSans-46" transform="translate(215.5625 0)"/>
       <use xlink:href="#DejaVuSans-48" transform="translate(270.546875 0)"/>
       <use xlink:href="#DejaVuSans-10" transform="translate(332.078125 0)"/>
       <use xlink:href="#DejaVuSans-53" transform="translate(368.15625 0)"/>
       <use xlink:href="#DejaVuSans-52" transform="translate(431.640625 0)"/>
       <use xlink:href="#DejaVuSans-56" transform="translate(492.828125 0)"/>
       <use xlink:href="#DejaVuSans-4c" transform="translate(544.921875 0)"/>
       <use xlink:href="#DejaVuSans-57" transform="translate(572.703125 0)"/>
       <use xlink:href="#DejaVuSans-4c" transform="translate(611.90625 0)"/>
       <use xlink:href="#DejaVuSans-52" transform="translate(639.6875 0)"/>
       <use xlink:href="#DejaVuSans-51" transform="translate(700.875 0)"/>
      </g>
      <!-- removal -->
      <g transform="translate(158.98514 220.855043) scale(0.09 -0.09)">
       <defs>
        <path id="DejaVuSans-50" d="M 3328 2828 
Q 3544 3216 3844 3400 
Q 4144 3584 4550 3584 
Q 5097 3584 5394 3201 
Q 5691 2819 5691 2113 
L 5691 0 
L 5113 0 
L 5113 2094 
Q 5113 2597 4934 2840 
Q 4756 3084 4391 3084 
Q 3944 3084 3684 2787 
Q 3425 2491 3425 1978 
L 3425 0 
L 2847 0 
L 2847 2094 
Q 2847 2600 2669 2842 
Q 2491 3084 2119 3084 
Q 1678 3084 1418 2786 
Q 1159 2488 1159 1978 
L 1159 0 
L 581 0 
L 581 3500 
L 1159 3500 
L 1159 2956 
Q 1356 3278 1631 3431 
Q 1906 3584 2284 3584 
Q 2666 3584 2933 3390 
Q 3200 3197 3328 2828 
z
" transform="scale(0.015625)"/>
        <path id="DejaVuSans-59" d="M 191 3500 
L 800 3500 
L 1894 563 
L 2988 3500 
L 3597 3500 
L 2284 0 
L 1503 0 
L 191 3500 
z
" transform="scale(0.015625)"/>
        <path id="DejaVuSans-4f" d="M 603 4863 
L 1178 4863 
L 1178 0 
L 603 0 
L 603 4863 
z
" transform="scale(0.015625)"/>
       </defs>
       <use xlink:href="#DejaVuSans-55"/>
       <use xlink:href="#DejaVuSans-48" transform="translate(38.90625 0)"/>
       <use xlink:href="#DejaVuSans-50" transform="translate(100.4375 0)"/>
       <use xlink:href="#DejaVuSans-52" transform="translate(197.84375 0)"/>
       <use xlink:href="#DejaVuSans-59" transform="translate(259.03125 0)"/>
       <use xlink:href="#DejaVuSans-44" transform="translate(318.21875 0)"/>
       <use xlink:href="#DejaVuSans-4f" transform="translate(379.5 0)"/>
      </g>
     </g>
    </g>
    <g id="xtick_3">
     <g id="line2d_3">
      <g>
       <use xlink:href="#m05963e6f21" x="268.392126" y="195.313109" style="stroke: #000000; stroke-width: 0.8"/>
      </g>
     </g>
     <g id="text_3">
      <!-- recurrent feature -->
      <g transform="translate(229.962829 210.052582) scale(0.09 -0.09)">
       <defs>
        <path id="DejaVuSans-49" d="M 2375 4863 
L 2375 4384 
L 1825 4384 
Q 1516 4384 1395 4259 
Q 1275 4134 1275 3809 
L 1275 3500 
L 2222 3500 
L 2222 3053 
L 1275 3053 
L 1275 0 
L 697 0 
L 697 3053 
L 147 3053 
L 147 3500 
L 697 3500 
L 697 3744 
Q 697 4328 969 4595 
Q 1241 4863 1831 4863 
L 2375 4863 
z
" transform="scale(0.015625)"/>
       </defs>
       <use xlink:href="#DejaVuSans-55"/>
       <use xlink:href="#DejaVuSans-48" transform="translate(38.90625 0)"/>
       <use xlink:href="#DejaVuSans-46" transform="translate(100.4375 0)"/>
       <use xlink:href="#DejaVuSans-58" transform="translate(155.421875 0)"/>
       <use xlink:href="#DejaVuSans-55" transform="translate(218.796875 0)"/>
       <use xlink:href="#DejaVuSans-55" transform="translate(258.15625 0)"/>
       <use xlink:href="#DejaVuSans-48" transform="translate(297.0625 0)"/>
       <use xlink:href="#DejaVuSans-51" transform="translate(358.59375 0)"/>
       <use xlink:href="#DejaVuSans-57" transform="translate(421.96875 0)"/>
       <use xlink:href="#DejaVuSans-3" transform="translate(461.171875 0)"/>
       <use xlink:href="#DejaVuSans-49" transform="translate(492.953125 0)"/>
       <use xlink:href="#DejaVuSans-48" transform="translate(528.15625 0)"/>
       <use xlink:href="#DejaVuSans-44" transform="translate(589.6875 0)"/>
       <use xlink:href="#DejaVuSans-57" transform="translate(650.96875 0)"/>
       <use xlink:href="#DejaVuSans-58" transform="translate(690.171875 0)"/>
       <use xlink:href="#DejaVuSans-55" transform="translate(753.546875 0)"/>
       <use xlink:href="#DejaVuSans-48" transform="translate(792.453125 0)"/>
      </g>
      <!-- zero -->
      <g transform="translate(258.757204 220.85434) scale(0.09 -0.09)">
       <use xlink:href="#DejaVuSans-5d"/>
       <use xlink:href="#DejaVuSans-48" transform="translate(52.484375 0)"/>
       <use xlink:href="#DejaVuSans-55" transform="translate(114.015625 0)"/>
       <use xlink:href="#DejaVuSans-52" transform="translate(152.921875 0)"/>
      </g>
     </g>
    </g>
    <g id="xtick_4">
     <g id="line2d_4">
      <g>
       <use xlink:href="#m05963e6f21" x="359.471455" y="195.313109" style="stroke: #000000; stroke-width: 0.8"/>
      </g>
     </g>
     <g id="text_4">
      <!-- active control -->
      <g transform="translate(328.76458 210.052582) scale(0.09 -0.09)">
       <use xlink:href="#DejaVuSans-44"/>
       <use xlink:href="#DejaVuSans-46" transform="translate(61.28125 0)"/>
       <use xlink:href="#DejaVuSans-57" transform="translate(116.265625 0)"/>
       <use xlink:href="#DejaVuSans-4c" transform="translate(155.46875 0)"/>
       <use xlink:href="#DejaVuSans-59" transform="translate(183.25 0)"/>
       <use xlink:href="#DejaVuSans-48" transform="translate(242.4375 0)"/>
       <use xlink:href="#DejaVuSans-3" transform="translate(303.96875 0)"/>
       <use xlink:href="#DejaVuSans-46" transform="translate(335.75 0)"/>
       <use xlink:href="#DejaVuSans-52" transform="translate(390.734375 0)"/>
       <use xlink:href="#DejaVuSans-51" transform="translate(451.921875 0)"/>
       <use xlink:href="#DejaVuSans-57" transform="translate(515.296875 0)"/>
       <use xlink:href="#DejaVuSans-55" transform="translate(554.5 0)"/>
       <use xlink:href="#DejaVuSans-52" transform="translate(593.40625 0)"/>
       <use xlink:href="#DejaVuSans-4f" transform="translate(654.59375 0)"/>
      </g>
      <!-- zero -->
      <g transform="translate(349.836534 220.85434) scale(0.09 -0.09)">
       <use xlink:href="#DejaVuSans-5d"/>
       <use xlink:href="#DejaVuSans-48" transform="translate(52.484375 0)"/>
       <use xlink:href="#DejaVuSans-55" transform="translate(114.015625 0)"/>
       <use xlink:href="#DejaVuSans-52" transform="translate(152.921875 0)"/>
      </g>
     </g>
    </g>
   </g>
   <g id="matplotlib.axis_2">
    <g id="ytick_1">
     <g id="line2d_5">
      <defs>
       <path id="m1094ae9857" d="M 0 0 
L -3.5 0 
" style="stroke: #000000; stroke-width: 0.8"/>
      </defs>
      <g>
       <use xlink:href="#m1094ae9857" x="41.513516" y="182.259321" style="stroke: #000000; stroke-width: 0.8"/>
      </g>
     </g>
     <g id="text_5">
      <!-- 0.0 -->
      <g transform="translate(20.200703 185.678267) scale(0.09 -0.09)">
       <defs>
        <path id="DejaVuSans-13" d="M 2034 4250 
Q 1547 4250 1301 3770 
Q 1056 3291 1056 2328 
Q 1056 1369 1301 889 
Q 1547 409 2034 409 
Q 2525 409 2770 889 
Q 3016 1369 3016 2328 
Q 3016 3291 2770 3770 
Q 2525 4250 2034 4250 
z
M 2034 4750 
Q 2819 4750 3233 4129 
Q 3647 3509 3647 2328 
Q 3647 1150 3233 529 
Q 2819 -91 2034 -91 
Q 1250 -91 836 529 
Q 422 1150 422 2328 
Q 422 3509 836 4129 
Q 1250 4750 2034 4750 
z
" transform="scale(0.015625)"/>
        <path id="DejaVuSans-11" d="M 684 794 
L 1344 794 
L 1344 0 
L 684 0 
L 684 794 
z
" transform="scale(0.015625)"/>
       </defs>
       <use xlink:href="#DejaVuSans-13"/>
       <use xlink:href="#DejaVuSans-11" transform="translate(63.625 0)"/>
       <use xlink:href="#DejaVuSans-13" transform="translate(95.40625 0)"/>
      </g>
     </g>
    </g>
    <g id="ytick_2">
     <g id="line2d_6">
      <g>
       <use xlink:href="#m1094ae9857" x="41.513516" y="151.519699" style="stroke: #000000; stroke-width: 0.8"/>
      </g>
     </g>
     <g id="text_6">
      <!-- 0.2 -->
      <g transform="translate(20.200703 154.938644) scale(0.09 -0.09)">
       <defs>
        <path id="DejaVuSans-15" d="M 1228 531 
L 3431 531 
L 3431 0 
L 469 0 
L 469 531 
Q 828 903 1448 1529 
Q 2069 2156 2228 2338 
Q 2531 2678 2651 2914 
Q 2772 3150 2772 3378 
Q 2772 3750 2511 3984 
Q 2250 4219 1831 4219 
Q 1534 4219 1204 4116 
Q 875 4013 500 3803 
L 500 4441 
Q 881 4594 1212 4672 
Q 1544 4750 1819 4750 
Q 2544 4750 2975 4387 
Q 3406 4025 3406 3419 
Q 3406 3131 3298 2873 
Q 3191 2616 2906 2266 
Q 2828 2175 2409 1742 
Q 1991 1309 1228 531 
z
" transform="scale(0.015625)"/>
       </defs>
       <use xlink:href="#DejaVuSans-13"/>
       <use xlink:href="#DejaVuSans-11" transform="translate(63.625 0)"/>
       <use xlink:href="#DejaVuSans-15" transform="translate(95.40625 0)"/>
      </g>
     </g>
    </g>
    <g id="ytick_3">
     <g id="line2d_7">
      <g>
       <use xlink:href="#m1094ae9857" x="41.513516" y="120.780076" style="stroke: #000000; stroke-width: 0.8"/>
      </g>
     </g>
     <g id="text_7">
      <!-- 0.4 -->
      <g transform="translate(20.200703 124.199021) scale(0.09 -0.09)">
       <defs>
        <path id="DejaVuSans-17" d="M 2419 4116 
L 825 1625 
L 2419 1625 
L 2419 4116 
z
M 2253 4666 
L 3047 4666 
L 3047 1625 
L 3713 1625 
L 3713 1100 
L 3047 1100 
L 3047 0 
L 2419 0 
L 2419 1100 
L 313 1100 
L 313 1709 
L 2253 4666 
z
" transform="scale(0.015625)"/>
       </defs>
       <use xlink:href="#DejaVuSans-13"/>
       <use xlink:href="#DejaVuSans-11" transform="translate(63.625 0)"/>
       <use xlink:href="#DejaVuSans-17" transform="translate(95.40625 0)"/>
      </g>
     </g>
    </g>
    <g id="ytick_4">
     <g id="line2d_8">
      <g>
       <use xlink:href="#m1094ae9857" x="41.513516" y="90.040453" style="stroke: #000000; stroke-width: 0.8"/>
      </g>
     </g>
     <g id="text_8">
      <!-- 0.6 -->
      <g transform="translate(20.200703 93.459399) scale(0.09 -0.09)">
       <defs>
        <path id="DejaVuSans-19" d="M 2113 2584 
Q 1688 2584 1439 2293 
Q 1191 2003 1191 1497 
Q 1191 994 1439 701 
Q 1688 409 2113 409 
Q 2538 409 2786 701 
Q 3034 994 3034 1497 
Q 3034 2003 2786 2293 
Q 2538 2584 2113 2584 
z
M 3366 4563 
L 3366 3988 
Q 3128 4100 2886 4159 
Q 2644 4219 2406 4219 
Q 1781 4219 1451 3797 
Q 1122 3375 1075 2522 
Q 1259 2794 1537 2939 
Q 1816 3084 2150 3084 
Q 2853 3084 3261 2657 
Q 3669 2231 3669 1497 
Q 3669 778 3244 343 
Q 2819 -91 2113 -91 
Q 1303 -91 875 529 
Q 447 1150 447 2328 
Q 447 3434 972 4092 
Q 1497 4750 2381 4750 
Q 2619 4750 2861 4703 
Q 3103 4656 3366 4563 
z
" transform="scale(0.015625)"/>
       </defs>
       <use xlink:href="#DejaVuSans-13"/>
       <use xlink:href="#DejaVuSans-11" transform="translate(63.625 0)"/>
       <use xlink:href="#DejaVuSans-19" transform="translate(95.40625 0)"/>
      </g>
     </g>
    </g>
    <g id="ytick_5">
     <g id="line2d_9">
      <g>
       <use xlink:href="#m1094ae9857" x="41.513516" y="59.300831" style="stroke: #000000; stroke-width: 0.8"/>
      </g>
     </g>
     <g id="text_9">
      <!-- 0.8 -->
      <g transform="translate(20.200703 62.719776) scale(0.09 -0.09)">
       <defs>
        <path id="DejaVuSans-1b" d="M 2034 2216 
Q 1584 2216 1326 1975 
Q 1069 1734 1069 1313 
Q 1069 891 1326 650 
Q 1584 409 2034 409 
Q 2484 409 2743 651 
Q 3003 894 3003 1313 
Q 3003 1734 2745 1975 
Q 2488 2216 2034 2216 
z
M 1403 2484 
Q 997 2584 770 2862 
Q 544 3141 544 3541 
Q 544 4100 942 4425 
Q 1341 4750 2034 4750 
Q 2731 4750 3128 4425 
Q 3525 4100 3525 3541 
Q 3525 3141 3298 2862 
Q 3072 2584 2669 2484 
Q 3125 2378 3379 2068 
Q 3634 1759 3634 1313 
Q 3634 634 3220 271 
Q 2806 -91 2034 -91 
Q 1263 -91 848 271 
Q 434 634 434 1313 
Q 434 1759 690 2068 
Q 947 2378 1403 2484 
z
M 1172 3481 
Q 1172 3119 1398 2916 
Q 1625 2713 2034 2713 
Q 2441 2713 2670 2916 
Q 2900 3119 2900 3481 
Q 2900 3844 2670 4047 
Q 2441 4250 2034 4250 
Q 1625 4250 1398 4047 
Q 1172 3844 1172 3481 
z
" transform="scale(0.015625)"/>
       </defs>
       <use xlink:href="#DejaVuSans-13"/>
       <use xlink:href="#DejaVuSans-11" transform="translate(63.625 0)"/>
       <use xlink:href="#DejaVuSans-1b" transform="translate(95.40625 0)"/>
      </g>
     </g>
    </g>
    <g id="ytick_6">
     <g id="line2d_10">
      <g>
       <use xlink:href="#m1094ae9857" x="41.513516" y="28.561208" style="stroke: #000000; stroke-width: 0.8"/>
      </g>
     </g>
     <g id="text_10">
      <!-- 1.0 -->
      <g transform="translate(20.200703 31.980153) scale(0.09 -0.09)">
       <defs>
        <path id="DejaVuSans-14" d="M 794 531 
L 1825 531 
L 1825 4091 
L 703 3866 
L 703 4441 
L 1819 4666 
L 2450 4666 
L 2450 531 
L 3481 531 
L 3481 0 
L 794 0 
L 794 531 
z
" transform="scale(0.015625)"/>
       </defs>
       <use xlink:href="#DejaVuSans-14"/>
       <use xlink:href="#DejaVuSans-11" transform="translate(63.625 0)"/>
       <use xlink:href="#DejaVuSans-13" transform="translate(95.40625 0)"/>
      </g>
     </g>
    </g>
    <g id="text_11">
     <!-- Gold-minus-foil damage -->
     <g transform="translate(14.038594 162.284477) rotate(-90) scale(0.09 -0.09)">
      <defs>
       <path id="DejaVuSans-2a" d="M 3809 666 
L 3809 1919 
L 2778 1919 
L 2778 2438 
L 4434 2438 
L 4434 434 
Q 4069 175 3628 42 
Q 3188 -91 2688 -91 
Q 1594 -91 976 548 
Q 359 1188 359 2328 
Q 359 3472 976 4111 
Q 1594 4750 2688 4750 
Q 3144 4750 3555 4637 
Q 3966 4525 4313 4306 
L 4313 3634 
Q 3963 3931 3569 4081 
Q 3175 4231 2741 4231 
Q 1884 4231 1454 3753 
Q 1025 3275 1025 2328 
Q 1025 1384 1454 906 
Q 1884 428 2741 428 
Q 3075 428 3337 486 
Q 3600 544 3809 666 
z
" transform="scale(0.015625)"/>
       <path id="DejaVuSans-47" d="M 2906 2969 
L 2906 4863 
L 3481 4863 
L 3481 0 
L 2906 0 
L 2906 525 
Q 2725 213 2448 61 
Q 2172 -91 1784 -91 
Q 1150 -91 751 415 
Q 353 922 353 1747 
Q 353 2572 751 3078 
Q 1150 3584 1784 3584 
Q 2172 3584 2448 3432 
Q 2725 3281 2906 2969 
z
M 947 1747 
Q 947 1113 1208 752 
Q 1469 391 1925 391 
Q 2381 391 2643 752 
Q 2906 1113 2906 1747 
Q 2906 2381 2643 2742 
Q 2381 3103 1925 3103 
Q 1469 3103 1208 2742 
Q 947 2381 947 1747 
z
" transform="scale(0.015625)"/>
       <path id="DejaVuSans-4a" d="M 2906 1791 
Q 2906 2416 2648 2759 
Q 2391 3103 1925 3103 
Q 1463 3103 1205 2759 
Q 947 2416 947 1791 
Q 947 1169 1205 825 
Q 1463 481 1925 481 
Q 2391 481 2648 825 
Q 2906 1169 2906 1791 
z
M 3481 434 
Q 3481 -459 3084 -895 
Q 2688 -1331 1869 -1331 
Q 1566 -1331 1297 -1286 
Q 1028 -1241 775 -1147 
L 775 -588 
Q 1028 -725 1275 -790 
Q 1522 -856 1778 -856 
Q 2344 -856 2625 -561 
Q 2906 -266 2906 331 
L 2906 616 
Q 2728 306 2450 153 
Q 2172 0 1784 0 
Q 1141 0 747 490 
Q 353 981 353 1791 
Q 353 2603 747 3093 
Q 1141 3584 1784 3584 
Q 2172 3584 2450 3431 
Q 2728 3278 2906 2969 
L 2906 3500 
L 3481 3500 
L 3481 434 
z
" transform="scale(0.015625)"/>
      </defs>
      <use xlink:href="#DejaVuSans-2a"/>
      <use xlink:href="#DejaVuSans-52" transform="translate(77.484375 0)"/>
      <use xlink:href="#DejaVuSans-4f" transform="translate(138.671875 0)"/>
      <use xlink:href="#DejaVuSans-47" transform="translate(166.453125 0)"/>
      <use xlink:href="#DejaVuSans-10" transform="translate(229.9375 0)"/>
      <use xlink:href="#DejaVuSans-50" transform="translate(266.015625 0)"/>
      <use xlink:href="#DejaVuSans-4c" transform="translate(363.421875 0)"/>
      <use xlink:href="#DejaVuSans-51" transform="translate(391.203125 0)"/>
      <use xlink:href="#DejaVuSans-58" transform="translate(454.578125 0)"/>
      <use xlink:href="#DejaVuSans-56" transform="translate(517.953125 0)"/>
      <use xlink:href="#DejaVuSans-10" transform="translate(570.046875 0)"/>
      <use xlink:href="#DejaVuSans-49" transform="translate(606.125 0)"/>
      <use xlink:href="#DejaVuSans-52" transform="translate(641.328125 0)"/>
      <use xlink:href="#DejaVuSans-4c" transform="translate(702.515625 0)"/>
      <use xlink:href="#DejaVuSans-4f" transform="translate(730.296875 0)"/>
      <use xlink:href="#DejaVuSans-3" transform="translate(758.078125 0)"/>
      <use xlink:href="#DejaVuSans-47" transform="translate(789.859375 0)"/>
      <use xlink:href="#DejaVuSans-44" transform="translate(853.34375 0)"/>
      <use xlink:href="#DejaVuSans-50" transform="translate(914.625 0)"/>
      <use xlink:href="#DejaVuSans-44" transform="translate(1012.03125 0)"/>
      <use xlink:href="#DejaVuSans-4a" transform="translate(1073.3125 0)"/>
      <use xlink:href="#DejaVuSans-48" transform="translate(1136.796875 0)"/>
     </g>
    </g>
   </g>
   <g id="line2d_11">
    <path d="M 41.513516 182.259321 
L 404.191406 182.259321 
" clip-path="url(#pe0689e0692)" style="fill: none; stroke: #555555; stroke-width: 0.8; stroke-linecap: square"/>
   </g>
   <g id="LineCollection_1">
    <path d="M 86.233466 132.240412 
L 86.233466 29.311167 
" clip-path="url(#pe0689e0692)" style="fill: none; stroke: #000000; stroke-width: 1.5"/>
    <path d="M 177.312796 157.778438 
L 177.312796 143.268438 
" clip-path="url(#pe0689e0692)" style="fill: none; stroke: #000000; stroke-width: 1.5"/>
    <path d="M 268.392126 187.408255 
L 268.392126 182.298567 
" clip-path="url(#pe0689e0692)" style="fill: none; stroke: #000000; stroke-width: 1.5"/>
    <path d="M 359.471455 183.606871 
L 359.471455 175.628083 
" clip-path="url(#pe0689e0692)" style="fill: none; stroke: #000000; stroke-width: 1.5"/>
   </g>
   <g id="line2d_12">
    <defs>
     <path id="me0254658e4" d="M 3 0 
L -3 -0 
" style="stroke: #000000"/>
    </defs>
    <g clip-path="url(#pe0689e0692)">
     <use xlink:href="#me0254658e4" x="86.233466" y="132.240412" style="fill: #1f77b4; stroke: #000000"/>
     <use xlink:href="#me0254658e4" x="177.312796" y="157.778438" style="fill: #1f77b4; stroke: #000000"/>
     <use xlink:href="#me0254658e4" x="268.392126" y="187.408255" style="fill: #1f77b4; stroke: #000000"/>
     <use xlink:href="#me0254658e4" x="359.471455" y="183.606871" style="fill: #1f77b4; stroke: #000000"/>
    </g>
   </g>
   <g id="line2d_13">
    <g clip-path="url(#pe0689e0692)">
     <use xlink:href="#me0254658e4" x="86.233466" y="29.311167" style="fill: #1f77b4; stroke: #000000"/>
     <use xlink:href="#me0254658e4" x="177.312796" y="143.268438" style="fill: #1f77b4; stroke: #000000"/>
     <use xlink:href="#me0254658e4" x="268.392126" y="182.298567" style="fill: #1f77b4; stroke: #000000"/>
     <use xlink:href="#me0254658e4" x="359.471455" y="175.628083" style="fill: #1f77b4; stroke: #000000"/>
    </g>
   </g>
   <g id="patch_7">
    <path d="M 41.513516 195.313109 
L 41.513516 21.406312 
" style="fill: none; stroke: #000000; stroke-width: 0.8; stroke-linejoin: miter; stroke-linecap: square"/>
   </g>
   <g id="patch_8">
    <path d="M 41.513516 195.313109 
L 404.191406 195.313109 
" style="fill: none; stroke: #000000; stroke-width: 0.8; stroke-linejoin: miter; stroke-linecap: square"/>
   </g>
   <g id="text_12">
    <!-- Path influence is positive; held-out feature necessity is not -->
    <g transform="translate(64.470461 15.406312) scale(0.108 -0.108)">
     <defs>
      <path id="DejaVuSans-33" d="M 1259 4147 
L 1259 2394 
L 2053 2394 
Q 2494 2394 2734 2622 
Q 2975 2850 2975 3272 
Q 2975 3691 2734 3919 
Q 2494 4147 2053 4147 
L 1259 4147 
z
M 628 4666 
L 2053 4666 
Q 2838 4666 3239 4311 
Q 3641 3956 3641 3272 
Q 3641 2581 3239 2228 
Q 2838 1875 2053 1875 
L 1259 1875 
L 1259 0 
L 628 0 
L 628 4666 
z
" transform="scale(0.015625)"/>
      <path id="DejaVuSans-13b0" d="M 1831 4863 
L 3431 4863 
L 3431 0 
L 2853 0 
L 2853 4384 
L 1825 4384 
Q 1516 4384 1395 4259 
Q 1275 4134 1275 3809 
L 1275 3500 
L 2222 3500 
L 2222 3053 
L 1275 3053 
L 1275 0 
L 697 0 
L 697 3053 
L 147 3053 
L 147 3500 
L 697 3500 
L 697 3744 
Q 697 4328 969 4595 
Q 1241 4863 1831 4863 
z
" transform="scale(0.015625)"/>
      <path id="DejaVuSans-1e" d="M 750 3309 
L 1409 3309 
L 1409 2516 
L 750 2516 
L 750 3309 
z
M 750 794 
L 1409 794 
L 1409 256 
L 897 -744 
L 494 -744 
L 750 256 
L 750 794 
z
" transform="scale(0.015625)"/>
      <path id="DejaVuSans-5c" d="M 2059 -325 
Q 1816 -950 1584 -1140 
Q 1353 -1331 966 -1331 
L 506 -1331 
L 506 -850 
L 844 -850 
Q 1081 -850 1212 -737 
Q 1344 -625 1503 -206 
L 1606 56 
L 191 3500 
L 800 3500 
L 1894 763 
L 2988 3500 
L 3597 3500 
L 2059 -325 
z
" transform="scale(0.015625)"/>
     </defs>
     <use xlink:href="#DejaVuSans-33"/>
     <use xlink:href="#DejaVuSans-44" transform="translate(55.8125 0)"/>
     <use xlink:href="#DejaVuSans-57" transform="translate(117.09375 0)"/>
     <use xlink:href="#DejaVuSans-4b" transform="translate(156.296875 0)"/>
     <use xlink:href="#DejaVuSans-3" transform="translate(219.671875 0)"/>
     <use xlink:href="#DejaVuSans-4c" transform="translate(251.453125 0)"/>
     <use xlink:href="#DejaVuSans-51" transform="translate(279.234375 0)"/>
     <use xlink:href="#DejaVuSans-13b0" transform="translate(342.609375 0)"/>
     <use xlink:href="#DejaVuSans-58" transform="translate(405.59375 0)"/>
     <use xlink:href="#DejaVuSans-48" transform="translate(468.96875 0)"/>
     <use xlink:href="#DejaVuSans-51" transform="translate(530.5 0)"/>
     <use xlink:href="#DejaVuSans-46" transform="translate(593.875 0)"/>
     <use xlink:href="#DejaVuSans-48" transform="translate(648.859375 0)"/>
     <use xlink:href="#DejaVuSans-3" transform="translate(710.390625 0)"/>
     <use xlink:href="#DejaVuSans-4c" transform="translate(742.171875 0)"/>
     <use xlink:href="#DejaVuSans-56" transform="translate(769.953125 0)"/>
     <use xlink:href="#DejaVuSans-3" transform="translate(822.046875 0)"/>
     <use xlink:href="#DejaVuSans-53" transform="translate(853.828125 0)"/>
     <use xlink:href="#DejaVuSans-52" transform="translate(917.3125 0)"/>
     <use xlink:href="#DejaVuSans-56" transform="translate(978.5 0)"/>
     <use xlink:href="#DejaVuSans-4c" transform="translate(1030.59375 0)"/>
     <use xlink:href="#DejaVuSans-57" transform="translate(1058.375 0)"/>
     <use xlink:href="#DejaVuSans-4c" transform="translate(1097.578125 0)"/>
     <use xlink:href="#DejaVuSans-59" transform="translate(1125.359375 0)"/>
     <use xlink:href="#DejaVuSans-48" transform="translate(1184.546875 0)"/>
     <use xlink:href="#DejaVuSans-1e" transform="translate(1246.078125 0)"/>
     <use xlink:href="#DejaVuSans-3" transform="translate(1279.765625 0)"/>
     <use xlink:href="#DejaVuSans-4b" transform="translate(1311.546875 0)"/>
     <use xlink:href="#DejaVuSans-48" transform="translate(1374.921875 0)"/>
     <use xlink:href="#DejaVuSans-4f" transform="translate(1436.453125 0)"/>
     <use xlink:href="#DejaVuSans-47" transform="translate(1464.234375 0)"/>
     <use xlink:href="#DejaVuSans-10" transform="translate(1527.71875 0)"/>
     <use xlink:href="#DejaVuSans-52" transform="translate(1565.65625 0)"/>
     <use xlink:href="#DejaVuSans-58" transform="translate(1626.84375 0)"/>
     <use xlink:href="#DejaVuSans-57" transform="translate(1690.21875 0)"/>
     <use xlink:href="#DejaVuSans-3" transform="translate(1729.421875 0)"/>
     <use xlink:href="#DejaVuSans-49" transform="translate(1761.203125 0)"/>
     <use xlink:href="#DejaVuSans-48" transform="translate(1796.40625 0)"/>
     <use xlink:href="#DejaVuSans-44" transform="translate(1857.9375 0)"/>
     <use xlink:href="#DejaVuSans-57" transform="translate(1919.21875 0)"/>
     <use xlink:href="#DejaVuSans-58" transform="translate(1958.421875 0)"/>
     <use xlink:href="#DejaVuSans-55" transform="translate(2021.796875 0)"/>
     <use xlink:href="#DejaVuSans-48" transform="translate(2060.703125 0)"/>
     <use xlink:href="#DejaVuSans-3" transform="translate(2122.234375 0)"/>
     <use xlink:href="#DejaVuSans-51" transform="translate(2154.015625 0)"/>
     <use xlink:href="#DejaVuSans-48" transform="translate(2217.390625 0)"/>
     <use xlink:href="#DejaVuSans-46" transform="translate(2278.921875 0)"/>
     <use xlink:href="#DejaVuSans-48" transform="translate(2333.90625 0)"/>
     <use xlink:href="#DejaVuSans-56" transform="translate(2395.4375 0)"/>
     <use xlink:href="#DejaVuSans-56" transform="translate(2447.53125 0)"/>
     <use xlink:href="#DejaVuSans-4c" transform="translate(2499.625 0)"/>
     <use xlink:href="#DejaVuSans-57" transform="translate(2527.40625 0)"/>
     <use xlink:href="#DejaVuSans-5c" transform="translate(2566.609375 0)"/>
     <use xlink:href="#DejaVuSans-3" transform="translate(2625.796875 0)"/>
     <use xlink:href="#DejaVuSans-4c" transform="translate(2657.578125 0)"/>
     <use xlink:href="#DejaVuSans-56" transform="translate(2685.359375 0)"/>
     <use xlink:href="#DejaVuSans-3" transform="translate(2737.453125 0)"/>
     <use xlink:href="#DejaVuSans-51" transform="translate(2769.234375 0)"/>
     <use xlink:href="#DejaVuSans-52" transform="translate(2832.609375 0)"/>
     <use xlink:href="#DejaVuSans-57" transform="translate(2893.796875 0)"/>
    </g>
   </g>
  </g>
 </g>
 <defs>
  <clipPath id="pe0689e0692">
   <rect x="41.513516" y="21.406312" width="362.677891" height="173.906797"/>
  </clipPath>
 </defs>
</svg>
